<svg xmlns="http://www.w3.org/2000/svg" viewBox="0 0 34.87 43.92"><defs><style>.cls-1{fill:#fff;}</style></defs><title>Asset 1</title><g id="Layer_2" data-name="Layer 2"><g id="Capa_1" data-name="Capa 1"><path class="cls-1" d="M29.87,0H5A5,5,0,0,0,0,5V38.92a5,5,0,0,0,5,5H29.87a5,5,0,0,0,5-5V5A5,5,0,0,0,29.87,0ZM4.69,16.85a2.12,2.12,0,0,1,2.12-2.12h.74a4.94,4.94,0,1,1,7.31,0h.71a2.12,2.12,0,0,1,2.12,2.12v3.58a2.13,2.13,0,0,1-2,2.11h-9a2.12,2.12,0,0,1-2-2.11V16.85Zm23.5,20.57H6.69a2,2,0,1,1,0-4h21.5a2,2,0,0,1,0,4Zm0-7.5H6.69a2,2,0,1,1,0-4h21.5a2,2,0,0,1,0,4Zm0-7.5h-6.5a2,2,0,1,1,0-4h6.5a2,2,0,0,1,0,4Z"/></g></g></svg>