<svg xmlns="http://www.w3.org/2000/svg" viewBox="0 0 426 271"><defs><style>.cls-1{fill:#fff;}</style></defs><title>Asset 1</title><g id="Layer_2" data-name="Layer 2"><g id="Layer_1-2" data-name="Layer 1"><path class="cls-1" d="M413.77,22.21A58.12,58.12,0,0,0,399.26,9a57.45,57.45,0,0,0-31-9H57.7a57.45,57.45,0,0,0-31,9A58.12,58.12,0,0,0,12.23,22.21,57.31,57.31,0,0,0,0,57.66V213.34a57.2,57.2,0,0,0,8.69,30.39,58,58,0,0,0,12.78,14.45A57.41,57.41,0,0,0,57.7,271H368.3a57.41,57.41,0,0,0,36.23-12.82,58,58,0,0,0,12.78-14.45A57.2,57.2,0,0,0,426,213.34V57.66A57.31,57.31,0,0,0,413.77,22.21ZM57.7,19H368.31a38.06,38.06,0,0,1,13.74,2.54l-132.35,98-16.16,12-10.8,8c-5.1,3.78-14.37,3.78-19.47,0l-10.81-8-16.15-12L44,21.54A38.07,38.07,0,0,1,57.7,19ZM19,213.31V57.53a38.22,38.22,0,0,1,8.45-24l132.46,98.07L24,232.23A38.32,38.32,0,0,1,19,213.31ZM368.31,252H57.7a38.14,38.14,0,0,1-20-5.62L176.3,143.76l15.53,11.5a37.31,37.31,0,0,0,42.35,0l15.53-11.5L388.3,246.38A38.16,38.16,0,0,1,368.31,252ZM407,213.31a38.32,38.32,0,0,1-5,18.92L266.09,131.57,398.55,33.5a38.22,38.22,0,0,1,8.45,24Z"/></g></g></svg>